<svg xmlns="http://www.w3.org/2000/svg" version="1.1" xmlns:xlink="http://www.w3.org/1999/xlink" xmlns:svgjs="http://svgjs.dev/svgjs" width="1000" height="1000" viewBox="0 0 1000 1000"><g transform="matrix(1,0,0,1,0,0)"><svg viewBox="0 0 280 280" data-background-color="#ffffff" preserveAspectRatio="xMidYMid meet" height="1000" width="1000" xmlns="http://www.w3.org/2000/svg" xmlns:xlink="http://www.w3.org/1999/xlink"><g id="tight-bounds" transform="matrix(1,0,0,1,0,0)"><svg viewBox="0 0 280 280" height="280" width="280"><g><svg viewBox="0 0 280 280" height="280" width="280"><g><svg viewBox="0 0 280 280" height="280" width="280"><g id="textblocktransform"><svg viewBox="0 0 280 280" height="280" width="280" id="textblock"><g><svg viewBox="0 0 280 280" height="280" width="280"><g transform="matrix(1,0,0,1,90.50252531694167,90.50252531694167)"><svg viewBox="0 0 98.99494936611664 98.99494936611664" height="98.99494936611664" width="98.99494936611664"><g><svg xmlns="http://www.w3.org/2000/svg" xmlns:xlink="http://www.w3.org/1999/xlink" version="1.1" x="0" y="0" viewBox="5 5 90 90" enable-background="new 0 0 100 100" xml:space="preserve" height="98.99494936611664" width="98.99494936611664" class="icon-o-0" data-fill-palette-color="accent" id="o-0"><rect x="51.9" y="27.9" width="20.6" height="1.4" fill="#77d4fc" data-fill-palette-color="accent"></rect><rect x="51.9" y="37.3" width="20.6" height="1.4" fill="#77d4fc" data-fill-palette-color="accent"></rect><rect x="51.9" y="45.8" width="20.6" height="1.4" fill="#77d4fc" data-fill-palette-color="accent"></rect><rect x="27.5" y="54.2" width="45" height="1.4" fill="#77d4fc" data-fill-palette-color="accent"></rect><rect x="27.5" y="62.7" width="45" height="1.4" fill="#77d4fc" data-fill-palette-color="accent"></rect><rect x="27.5" y="71.1" width="22.5" height="1.4" fill="#77d4fc" data-fill-palette-color="accent"></rect><rect x="27" y="28" width="20" height="19" fill="#77d4fc" data-fill-palette-color="accent"></rect><g fill="#77d4fc" data-fill-palette-color="accent"><path d="M50 7c23.7 0 43 19.3 43 43S73.7 93 50 93 7 73.7 7 50 26.3 7 50 7M50 5C25.2 5 5 25.1 5 50c0 24.9 20.2 45 45 45s45-20.1 45-45C95 25.1 74.8 5 50 5L50 5z" fill="#77d4fc" data-fill-palette-color="accent"></path></g></svg></g></svg></g><g><path d="M29.964 88.832v0c1.308 0.463 2.357 1.211 3.147 2.245 0.792 1.027 1.277 2.203 1.456 3.527 0.183 1.333 0.039 2.666-0.434 3.999v0l-4.392 12.402-26.288-9.309 4.485-12.665c0.437-1.233 1.143-2.184 2.12-2.853 0.97-0.671 2.054-1.065 3.251-1.184 1.191-0.121 2.343 0.016 3.457 0.411v0c1.308 0.463 2.398 1.226 3.268 2.288 0.879 1.058 1.38 2.278 1.504 3.66v0c0.972-1.353 2.221-2.253 3.746-2.699 1.518-0.448 3.079-0.389 4.681 0.178zM28.606 91.267v0c-0.889-0.315-1.779-0.408-2.67-0.279-0.897 0.126-1.698 0.448-2.402 0.966-0.709 0.51-1.216 1.196-1.522 2.06v0l-3.568 10.074 9.952 3.525 3.474-9.811c0.315-0.889 0.367-1.772 0.157-2.65-0.215-0.886-0.624-1.679-1.229-2.379-0.598-0.698-1.329-1.2-2.192-1.506zM9.912 90.649l-3.279 9.257 9.699 3.434 3.198-9.032c0.306-0.864 0.349-1.711 0.129-2.542-0.222-0.825-0.632-1.566-1.231-2.222-0.605-0.658-1.327-1.136-2.166-1.433v0c-0.889-0.315-1.762-0.416-2.618-0.304-0.857 0.112-1.62 0.409-2.291 0.89-0.673 0.487-1.153 1.138-1.441 1.952z" fill="#010c80" data-fill-palette-color="primary"></path><path d="M47.528 75.832v0c-1.126 1.611-2.469 2.843-4.03 3.697-1.559 0.863-3.222 1.382-4.988 1.556-1.763 0.169-3.516 0.03-5.26-0.419-1.745-0.458-3.347-1.197-4.806-2.217v0c-1.524-1.065-2.791-2.347-3.8-3.846-1.011-1.509-1.718-3.129-2.121-4.86-0.398-1.737-0.457-3.479-0.175-5.226 0.28-1.757 0.952-3.397 2.017-4.921v0c1.126-1.611 2.48-2.836 4.063-3.674 1.581-0.848 3.254-1.347 5.02-1.498 1.77-0.156 3.519-0.011 5.248 0.436 1.738 0.445 3.326 1.17 4.763 2.174v0c1.524 1.065 2.791 2.347 3.8 3.847 1.011 1.509 1.72 3.126 2.126 4.852 0.41 1.72 0.467 3.453 0.171 5.198-0.287 1.744-0.963 3.377-2.028 4.901zM30.019 76.196v0c1.246 0.871 2.586 1.504 4.02 1.898 1.434 0.394 2.856 0.526 4.268 0.395 1.417-0.127 2.753-0.526 4.008-1.197 1.249-0.674 2.309-1.635 3.18-2.881v0c0.913-1.306 1.462-2.672 1.648-4.097 0.177-1.424 0.069-2.823-0.322-4.198-0.397-1.379-1.029-2.659-1.897-3.841-0.867-1.181-1.892-2.185-3.072-3.011v0c-1.246-0.871-2.581-1.5-4.004-1.886-1.423-0.387-2.849-0.513-4.28-0.379-1.436 0.131-2.772 0.529-4.008 1.197-1.23 0.671-2.281 1.63-3.152 2.876v0c-0.901 1.29-1.449 2.641-1.642 4.053-0.188 1.416-0.086 2.812 0.306 4.187 0.397 1.379 1.025 2.665 1.885 3.858 0.86 1.192 1.88 2.201 3.062 3.026z" fill="#010c80" data-fill-palette-color="primary"></path><path d="M62.641 58.057l-2.091 1.785-18.109-21.208 8.961-7.651c0.914-0.78 1.911-1.305 2.992-1.573 1.081-0.268 2.182-0.323 3.305-0.163 1.117 0.163 2.167 0.508 3.147 1.032 0.981 0.525 1.818 1.194 2.512 2.006v0c0.871 1.02 1.494 2.143 1.868 3.369 0.374 1.226 0.473 2.451 0.297 3.676-0.181 1.22-0.664 2.335-1.451 3.347v0l12.188 3.751-2.356 2.012-11.673-3.563-6.271 5.356zM46.116 38.704l8.259 9.673 6.931-5.918c0.838-0.716 1.371-1.564 1.599-2.544 0.224-0.986 0.186-1.996-0.114-3.033-0.3-1.036-0.808-1.973-1.523-2.812v0c-0.729-0.853-1.598-1.478-2.608-1.872-1.01-0.395-2.03-0.541-3.06-0.439-1.026 0.108-1.938 0.502-2.735 1.183v0z" fill="#010c80" data-fill-palette-color="primary"></path><path d="M85.947 40.999l-2.368 1.397-14.17-24.02 2.368-1.396z" fill="#010c80" data-fill-palette-color="primary"></path><path d="M114.79 30.183l-24.491-15.68 7.451 21.567-2.598 0.898-9.107-26.359 2.156-0.745 24.888 16.007-7.582-21.944 2.608-0.901 9.094 26.321z" fill="#010c80" data-fill-palette-color="primary"></path><path d="M137.567 28.269v0c-1.857 0.086-3.604-0.235-5.239-0.964-1.629-0.722-3.065-1.736-4.309-3.041-1.237-1.305-2.216-2.779-2.936-4.42-0.714-1.649-1.113-3.362-1.195-5.14v0c-0.087-1.884 0.149-3.683 0.707-5.396 0.565-1.721 1.391-3.262 2.478-4.622 1.094-1.36 2.409-2.455 3.946-3.283 1.53-0.835 3.224-1.296 5.081-1.382v0c2.746-0.127 5.011 0.333 6.794 1.38 1.776 1.041 3.151 2.446 4.123 4.216v0l-2.053 1.511c-0.969-1.69-2.218-2.905-3.749-3.645-1.53-0.74-3.21-1.068-5.04-0.983v0c-1.539 0.071-2.917 0.461-4.134 1.168-1.21 0.714-2.234 1.642-3.072 2.785-0.838 1.136-1.454 2.407-1.847 3.814-0.393 1.407-0.556 2.857-0.487 4.35v0c0.073 1.572 0.404 3.046 0.993 4.421 0.582 1.376 1.382 2.582 2.401 3.618 1.019 1.043 2.179 1.843 3.481 2.401 1.295 0.552 2.676 0.793 4.141 0.726v0c1.698-0.079 3.287-0.578 4.767-1.497 1.473-0.919 2.861-2.299 4.165-4.142v0l0.135 2.906c-2.492 3.313-5.542 5.052-9.151 5.219zM146.502 27.656l-0.535-11.571-6.199 0.287-0.098-2.119 8.517-0.395 0.634 13.691z" fill="#010c80" data-fill-palette-color="primary"></path><path d="M189.979 38.556l-9.516-27.479-7.508 21.548-2.596-0.905 9.176-26.335 2.154 0.751 9.625 27.981 7.639-21.924 2.606 0.908-9.163 26.297z" fill="#010c80" data-fill-palette-color="primary"></path><path d="M203.944 44.081l13.201 9.014-1.376 2.016-15.472-10.565 15.727-23.031 15.183 10.368-1.376 2.016-12.913-8.818-5.667 8.299 11.252 7.683-1.309 1.917-11.252-7.684z" fill="#010c80" data-fill-palette-color="primary"></path><path d="M242.3 63.008l6.477-11.11 1.576 2.054-5.459 9.149 10.268-2.883 1.601 2.086-12.408 3.382-6.753 11.912 25.752-7.032 1.819 2.371-29.321 7.599-1.486-1.936 7.376-13.03-14.525 3.714-1.461-1.904 14.951-26.325 1.794 2.338-13.43 23.088z" fill="#010c80" data-fill-palette-color="primary"></path><path d="M274.446 102.363l-2.534-0.454c0.278-0.534 0.488-1.106 0.63-1.716 0.14-0.616 0.212-1.277 0.218-1.983 0.014-0.703-0.04-1.433-0.161-2.191-0.125-0.749-0.338-1.514-0.638-2.294v0c-0.876-2.274-1.953-3.777-3.231-4.508-1.276-0.725-2.657-0.802-4.144-0.229v0c-1.029 0.396-1.74 0.959-2.136 1.687-0.391 0.72-0.562 1.69-0.512 2.909 0.041 1.215 0.188 2.731 0.439 4.548v0c0.323 2.003 0.474 3.781 0.453 5.333-0.015 1.55-0.34 2.867-0.975 3.951-0.633 1.091-1.73 1.937-3.292 2.538v0c-1.202 0.463-2.332 0.632-3.391 0.506-1.059-0.126-2.039-0.492-2.942-1.097-0.908-0.604-1.724-1.428-2.446-2.473-0.727-1.036-1.354-2.239-1.882-3.609v0c-0.518-1.345-0.872-2.688-1.062-4.031-0.196-1.34-0.231-2.668-0.104-3.983 0.129-1.309 0.437-2.606 0.925-3.889v0l2.576 0.48c-0.31 0.653-0.554 1.388-0.731 2.203-0.179 0.809-0.287 1.676-0.322 2.6-0.033 0.931 0.033 1.887 0.198 2.87 0.174 0.986 0.449 1.969 0.826 2.948v0c0.8 2.076 1.802 3.55 3.006 4.424 1.202 0.867 2.55 1.014 4.044 0.438v0c1.072-0.413 1.82-1.039 2.243-1.878 0.42-0.831 0.611-1.915 0.573-3.252-0.03-1.333-0.179-2.93-0.447-4.791v0c-0.282-1.969-0.409-3.674-0.381-5.115 0.035-1.444 0.353-2.64 0.954-3.591 0.604-0.944 1.603-1.685 2.997-2.222v0c1.611-0.621 3.127-0.749 4.548-0.386 1.415 0.366 2.679 1.135 3.792 2.307 1.113 1.172 2.017 2.66 2.712 4.463v0c0.444 1.152 0.739 2.27 0.886 3.352 0.15 1.073 0.168 2.116 0.052 3.128-0.115 1.012-0.362 2.015-0.741 3.007z" fill="#010c80" data-fill-palette-color="primary"></path><path d="M24.28 200.397v0c-1.32 0.468-2.612 0.55-3.876 0.244-1.27-0.303-2.4-0.917-3.39-1.841-0.982-0.92-1.711-2.053-2.189-3.398v0l-4.432-12.493 26.47-9.392 4.526 12.757c0.44 1.239 0.492 2.429 0.157 3.569-0.341 1.143-0.939 2.14-1.792 2.992-0.862 0.848-1.852 1.471-2.973 1.869v0c-1.314 0.466-2.65 0.563-4.007 0.291-1.358-0.272-2.521-0.909-3.49-1.911v0c0.087 1.674-0.32 3.168-1.221 4.481-0.907 1.315-2.168 2.259-3.783 2.832zM23.805 197.627v0c0.889-0.315 1.645-0.805 2.268-1.47 0.615-0.669 1.036-1.428 1.264-2.277 0.234-0.851 0.196-1.711-0.113-2.581v0l-3.596-10.137-10.035 3.56 3.504 9.875c0.317 0.895 0.842 1.618 1.572 2.168 0.725 0.553 1.543 0.914 2.456 1.084 0.91 0.163 1.804 0.089 2.68-0.222zM38.824 186.254l-3.304-9.312-9.771 3.467 3.227 9.096c0.309 0.87 0.813 1.557 1.514 2.062 0.694 0.507 1.485 0.829 2.372 0.966 0.885 0.13 1.749 0.045 2.594-0.255v0c0.895-0.317 1.646-0.792 2.253-1.423 0.599-0.635 1.006-1.354 1.222-2.156 0.222-0.804 0.186-1.62-0.107-2.445z" fill="#010c80" data-fill-palette-color="primary"></path><path d="M30.431 223.266v0c-1.131-1.616-1.835-3.311-2.113-5.086-0.274-1.77-0.187-3.521 0.262-5.253 0.449-1.732 1.189-3.344 2.22-4.836 1.031-1.491 2.281-2.751 3.75-3.779v0c1.534-1.074 3.186-1.829 4.955-2.264 1.77-0.436 3.546-0.544 5.328-0.325 1.783 0.219 3.453 0.765 5.011 1.635 1.558 0.871 2.874 2.074 3.947 3.608v0c1.135 1.621 1.83 3.327 2.086 5.117 0.252 1.785 0.145 3.542-0.323 5.271-0.466 1.72-1.21 3.326-2.231 4.82-1.02 1.484-2.254 2.732-3.701 3.744v0c-1.534 1.074-3.186 1.829-4.955 2.265-1.773 0.431-3.546 0.544-5.317 0.341-1.77-0.212-3.43-0.756-4.983-1.63-1.551-0.884-2.863-2.093-3.936-3.628zM36.137 206.581v0c-1.251 0.876-2.313 1.923-3.186 3.142-0.864 1.221-1.48 2.523-1.849 3.907-0.368 1.384-0.451 2.783-0.247 4.197 0.202 1.423 0.74 2.76 1.616 4.012v0c0.925 1.322 2.031 2.311 3.316 2.967 1.284 0.665 2.647 1.049 4.088 1.151 1.441 0.102 2.87-0.051 4.286-0.459 1.418-0.417 2.72-1.041 3.906-1.871v0c1.251-0.876 2.308-1.919 3.171-3.13 0.853-1.213 1.465-2.521 1.837-3.924 0.372-1.403 0.452-2.805 0.242-4.205-0.201-1.399-0.741-2.727-1.621-3.984v0c-0.906-1.295-1.999-2.277-3.278-2.946-1.27-0.668-2.625-1.052-4.066-1.154-1.441-0.102-2.873 0.046-4.297 0.443-1.426 0.406-2.732 1.024-3.918 1.854z" fill="#010c80" data-fill-palette-color="primary"></path><path d="M49.35 244.629l-2.114-1.803 18.225-21.371 9.033 7.703c0.925 0.788 1.607 1.697 2.046 2.727 0.435 1.035 0.661 2.121 0.676 3.26 0.015 1.139-0.159 2.238-0.522 3.299-0.368 1.056-0.904 1.996-1.606 2.819v0c-0.87 1.021-1.886 1.817-3.045 2.39-1.165 0.568-2.369 0.859-3.612 0.873-1.242 0.014-2.43-0.287-3.562-0.904v0l-1.795 12.711-2.379-2.029 1.703-12.174-6.32-5.39zM65.985 225.122l-8.318 9.754 6.98 5.952c0.844 0.72 1.772 1.114 2.786 1.184 1.018 0.065 2.019-0.132 3.005-0.592 0.976-0.459 1.824-1.11 2.544-1.954v0c0.737-0.864 1.223-1.828 1.458-2.892 0.231-1.069 0.212-2.106-0.056-3.111-0.264-1.01-0.798-1.858-1.601-2.544v0z" fill="#010c80" data-fill-palette-color="primary"></path><path d="M75.541 263.741l-2.394-1.412 14.272-24.191 2.393 1.412z" fill="#010c80" data-fill-palette-color="primary"></path><path d="M108.111 276.271l-9.641-27.662-7.518 21.724-2.626-0.909 9.185-26.542 2.174 0.752 9.765 28.157 7.645-22.091 2.616 0.906-9.172 26.505z" fill="#010c80" data-fill-palette-color="primary"></path><path d="M136.567 279.67v0c-1.87-0.087-3.589-0.57-5.157-1.447-1.568-0.877-2.913-2.03-4.036-3.459-1.124-1.422-1.968-2.993-2.532-4.715-0.565-1.715-0.805-3.468-0.722-5.258v0c0.088-1.897 0.494-3.679 1.217-5.347 0.723-1.668 1.695-3.135 2.917-4.401 1.222-1.259 2.64-2.237 4.255-2.932 1.621-0.689 3.366-0.99 5.237-0.902v0c2.766 0.129 4.991 0.801 6.676 2.016 1.685 1.215 2.933 2.752 3.743 4.612v0l-2.206 1.323c-0.814-1.78-1.952-3.116-3.412-4.008-1.461-0.886-3.113-1.372-4.957-1.458v0c-1.559-0.073-2.977 0.193-4.255 0.799-1.284 0.598-2.4 1.43-3.347 2.496-0.947 1.066-1.685 2.284-2.215 3.655-0.523 1.378-0.819 2.817-0.889 4.316v0c-0.074 1.579 0.119 3.086 0.577 4.524 0.465 1.431 1.159 2.716 2.083 3.856 0.924 1.14 2.008 2.048 3.253 2.724 1.251 0.683 2.613 1.059 4.085 1.128v0c1.711 0.08 3.353-0.272 4.925-1.057 1.566-0.791 3.09-2.049 4.574-3.775v0l-0.137 2.925c-2.81 3.093-6.035 4.554-9.677 4.385zM145.59 279.891l0.544-11.66-6.248-0.291 0.1-2.13 8.576 0.401-0.643 13.789z" fill="#010c80" data-fill-palette-color="primary"></path><path d="M196.656 267.909l-24.688-15.766 7.534 21.718-2.625 0.91-9.206-26.535 2.174-0.754 25.092 16.08-7.661-22.085 2.615-0.908 9.193 26.498z" fill="#010c80" data-fill-palette-color="primary"></path><path d="M212.599 255.978l13.304-9.058 1.379 2.025-15.601 10.623-15.807-23.217 15.304-10.42 1.379 2.025-13.007 8.857 5.701 8.372 11.344-7.724 1.312 1.926-11.345 7.725z" fill="#010c80" data-fill-palette-color="primary"></path><path d="M233.354 217.321l-12.485-3.419 1.591-2.069 10.313 2.943-5.468-9.243 1.621-2.108 6.505 11.196 13.345 3.478-13.524-23.228 1.834-2.384 15.003 26.564-1.493 1.942-14.601-3.789 7.388 13.169-1.469 1.911-29.496-7.718 1.809-2.353 25.94 7.081z" fill="#010c80" data-fill-palette-color="primary"></path><path d="M247.044 174.13l1.578 2.05c-0.559 0.211-1.099 0.497-1.623 0.858-0.526 0.366-1.028 0.81-1.506 1.329-0.485 0.518-0.936 1.098-1.356 1.74-0.421 0.649-0.784 1.366-1.087 2.153v0c-0.883 2.286-1.094 4.133-0.635 5.542 0.46 1.409 1.442 2.404 2.947 2.985v0c1.028 0.397 1.938 0.456 2.729 0.178 0.782-0.274 1.568-0.882 2.358-1.822 0.784-0.943 1.697-2.174 2.74-3.693v0c1.113-1.72 2.202-3.15 3.269-4.29 1.063-1.148 2.198-1.913 3.405-2.294 1.208-0.381 2.598-0.267 4.171 0.341v0c1.208 0.466 2.164 1.106 2.868 1.918 0.706 0.807 1.192 1.742 1.458 2.806 0.266 1.063 0.317 2.229 0.155 3.497-0.162 1.268-0.509 2.59-1.04 3.965v0c-0.521 1.35-1.165 2.593-1.931 3.728-0.766 1.135-1.637 2.147-2.614 3.037-0.979 0.896-2.085 1.658-3.317 2.286v0l-1.61-2.106c0.677-0.279 1.355-0.662 2.033-1.147 0.685-0.483 1.352-1.058 2.001-1.726 0.655-0.665 1.254-1.423 1.797-2.275 0.542-0.851 1.003-1.769 1.384-2.754v0c0.808-2.094 1.054-3.871 0.735-5.332-0.31-1.465-1.214-2.487-2.713-3.065v0c-1.084-0.419-2.065-0.459-2.943-0.122-0.88 0.343-1.758 1.022-2.633 2.036-0.872 1.023-1.838 2.319-2.9 3.888v0c-1.118 1.661-2.18 3.019-3.186 4.076-0.997 1.053-2.041 1.728-3.132 2.026-1.093 0.304-2.342 0.185-3.747-0.358v0c-1.623-0.627-2.837-1.555-3.644-2.785-0.81-1.238-1.236-2.67-1.278-4.294-0.035-1.622 0.298-3.344 1.001-5.165v0c0.447-1.158 0.981-2.191 1.602-3.097 0.62-0.906 1.314-1.699 2.082-2.378 0.774-0.676 1.634-1.255 2.582-1.736z" fill="#010c80" data-fill-palette-color="primary"></path><path d="M4.094 143.517c0-5.926 4.804-10.729 10.73-10.729 5.926 0 10.729 4.804 10.729 10.729 0 5.926-4.804 10.729-10.729 10.729-5.926 0-10.729-4.804-10.73-10.729z" fill="#010c80" data-fill-palette-color="primary"></path><path d="M255.089 143.517c0-5.926 4.804-10.729 10.729-10.729 5.926 0 10.729 4.804 10.729 10.729 0 5.926-4.804 10.729-10.729 10.729-5.926 0-10.729-4.804-10.729-10.729z" fill="#010c80" data-fill-palette-color="primary"></path></g></svg></g></svg></g></svg></g></svg></g><defs></defs></svg><rect width="280" height="280" fill="none" stroke="none" visibility="hidden"></rect></g></svg></g></svg>