<svg xmlns="http://www.w3.org/2000/svg" version="1.1" xmlns:xlink="http://www.w3.org/1999/xlink" xmlns:svgjs="http://svgjs.dev/svgjs" width="1000" height="204" viewBox="0 0 1000 204"><g transform="matrix(1,0,0,1,-0.6060606060606233,0.26543717525471777)"><svg viewBox="0 0 396 81" data-background-color="#ffffff" preserveAspectRatio="xMidYMid meet" height="204" width="1000" xmlns="http://www.w3.org/2000/svg" xmlns:xlink="http://www.w3.org/1999/xlink"><g id="tight-bounds" transform="matrix(1,0,0,1,0.2400000000000091,-0.10539417252761041)"><svg viewBox="0 0 395.52 81.21078834505525" height="81.21078834505525" width="395.52"><g><svg viewBox="0 0 395.52 81.21078834505525" height="81.21078834505525" width="395.52"><g><svg viewBox="0 0 395.52 81.21078834505525" height="81.21078834505525" width="395.52"><g id="textblocktransform"><svg viewBox="0 0 395.52 81.21078834505525" height="81.21078834505525" width="395.52" id="textblock"><g><svg viewBox="0 0 395.52 81.21078834505525" height="81.21078834505525" width="395.52"><rect width="395.52" height="81.21078834505525" x="0" y="0" opacity="1" fill="#233565" data-fill-palette-color="tertiary"></rect><g transform="matrix(1,0,0,1,23.607599999999998,23.607599999999998)"><svg width="348.3048" viewBox="5.400000095367432 -33.5 348.33001708984375 34" height="33.99558834505525" data-palette-color="#ffffff"><path d="M17.1 0L5.4 0 5.4-33 17.15-33Q23-33 25.7-30.55 28.4-28.1 28.4-23.9L28.4-23.9Q28.4-21.4 26.95-19.38 25.5-17.35 22.85-16.8L22.85-16.8 22.85-16.75Q25.8-16.2 27.53-14.08 29.25-11.95 29.25-9.25L29.25-9.25Q29.25-5.05 26.1-2.53 22.95 0 17.1 0L17.1 0ZM9.4-14.75L9.4-3.75 18.05-3.75Q21.6-3.75 23.33-5.2 25.05-6.65 25.05-9.25L25.05-9.25Q25.05-11.9 23.33-13.33 21.6-14.75 18.05-14.75L18.05-14.75 9.4-14.75ZM9.4-29.25L9.4-18.5 17.2-18.5Q24.2-18.5 24.2-23.9L24.2-23.9Q24.2-29.25 17.2-29.25L17.2-29.25 9.4-29.25ZM51.35-33.5L51.35-33.5Q56.05-33.5 59.47-31.43 62.9-29.35 64.77-25.55 66.65-21.75 66.65-16.5L66.65-16.5Q66.65-11.25 64.77-7.45 62.9-3.65 59.47-1.58 56.05 0.5 51.35 0.5L51.35 0.5Q46.65 0.5 43.22-1.58 39.8-3.65 37.92-7.45 36.05-11.25 36.05-16.5L36.05-16.5Q36.05-21.75 37.92-25.55 39.8-29.35 43.22-31.43 46.65-33.5 51.35-33.5ZM51.35-29.75L51.35-29.75Q47.95-29.75 45.45-28.18 42.95-26.6 41.6-23.63 40.25-20.65 40.25-16.5L40.25-16.5Q40.25-12.35 41.6-9.38 42.95-6.4 45.45-4.83 47.95-3.25 51.35-3.25L51.35-3.25Q54.8-3.25 57.27-4.83 59.75-6.4 61.1-9.38 62.45-12.35 62.45-16.5L62.45-16.5Q62.45-20.65 61.1-23.63 59.75-26.6 57.27-28.18 54.8-29.75 51.35-29.75ZM75.45-33L87.95-33Q93-33 96.05-30.4 99.09-27.8 99.09-23.35L99.09-23.35Q99.09-18.9 96.02-16.43 92.95-13.95 87.9-13.95L87.9-13.95 87.55-13.7 79.45-13.7 79.45 0 75.45 0 75.45-33ZM79.45-17.45L87.9-17.45Q91.45-17.45 93.17-18.93 94.9-20.4 94.9-23.35L94.9-23.35Q94.9-26.3 93.17-27.78 91.45-29.25 87.9-29.25L87.9-29.25 79.45-29.25 79.45-17.45ZM86.84-14.45L90.2-16.65 101.09 0 96.34 0 86.84-14.45ZM108.69-33L112.69-33 112.69 0 108.69 0 108.69-33ZM145.59-33L149.39-33 149.39 0 144.44 0 130.64-22.1 127.14-28.3 127.09-28.3 127.29-23.3 127.29 0 123.49 0 123.49-33 128.44-33 142.19-11 145.74-4.65 145.79-4.65 145.59-9.7 145.59-33ZM173.49 0.5L173.49 0.5Q168.79 0.5 165.36-1.58 161.94-3.65 160.06-7.45 158.19-11.25 158.19-16.5L158.19-16.5Q158.19-21.75 160.16-25.55 162.14-29.35 165.69-31.43 169.24-33.5 173.84-33.5L173.84-33.5Q178.74-33.5 181.81-31.65 184.89-29.8 186.79-25.95L186.79-25.95 183.14-23.95Q182.04-26.8 179.66-28.28 177.29-29.75 173.84-29.75L173.84-29.75Q170.49-29.75 167.91-28.18 165.34-26.6 163.86-23.63 162.39-20.65 162.39-16.5L162.39-16.5Q162.39-12.35 163.66-9.38 164.94-6.4 167.46-4.83 169.99-3.25 173.64-3.25L173.64-3.25Q175.69-3.25 177.46-3.78 179.24-4.3 180.56-5.35 181.89-6.4 182.64-8 183.39-9.6 183.39-11.75L183.39-11.75 183.39-12.9 172.89-12.9 172.89-16.65 187.04-16.65 187.04 0 183.89 0 183.69-6.15 184.54-6Q183.24-2.9 180.44-1.2 177.64 0.5 173.49 0.5ZM235.53-33L239.33-33 239.33 0 234.38 0 220.58-22.1 217.08-28.3 217.03-28.3 217.23-23.3 217.23 0 213.43 0 213.43-33 218.38-33 232.13-11 235.68-4.65 235.73-4.65 235.53-9.7 235.53-33ZM274.03 0L250.13 0 250.13-33 273.28-33 273.28-29.25 254.13-29.25 254.13-18.6 269.03-18.6 269.03-14.85 254.13-14.85 254.13-3.75 274.03-3.75 274.03 0ZM293.13 0L288.18 0 278.43-33 282.58-33 290.73-3.65 298.48-33 303.03-33 310.78-3.55 318.93-33 322.88-33 313.18 0 308.23 0 302.38-21.4 300.68-28.85 300.63-28.85 298.93-21.4 293.13 0ZM340.68-33.5L340.68-33.5Q345.03-33.5 348.18-31.73 351.32-29.95 353.43-26.5L353.43-26.5 350.07-23.9Q348.23-27.1 345.9-28.43 343.57-29.75 340.28-29.75L340.28-29.75Q337.63-29.75 335.9-29 334.18-28.25 333.38-27.03 332.57-25.8 332.57-24.25L332.57-24.25Q332.57-22.5 333.68-21.18 334.78-19.85 338.07-19.1L338.07-19.1 345.23-17.5Q349.98-16.45 351.85-14.33 353.73-12.2 353.73-9.05L353.73-9.05Q353.73-6.25 352.15-4.08 350.57-1.9 347.73-0.7 344.88 0.5 341.03 0.5L341.03 0.5Q337.43 0.5 334.7-0.48 331.98-1.45 330.03-3.1 328.07-4.75 326.82-6.8L326.82-6.8 330.32-9.65Q331.28-7.75 332.78-6.3 334.28-4.85 336.4-4.05 338.53-3.25 341.28-3.25L341.28-3.25Q343.82-3.25 345.7-3.88 347.57-4.5 348.57-5.73 349.57-6.95 349.57-8.7L349.57-8.7Q349.57-10.3 348.53-11.58 347.48-12.85 344.57-13.5L344.57-13.5 336.82-15.25Q333.78-15.95 331.9-17.18 330.03-18.4 329.2-20.08 328.38-21.75 328.38-23.7L328.38-23.7Q328.38-26.35 329.85-28.58 331.32-30.8 334.1-32.15 336.88-33.5 340.68-33.5Z" opacity="1" transform="matrix(1,0,0,1,0,0)" fill="#ffffff" class="wordmark-text-0" data-fill-palette-color="quaternary" id="text-0"></path></svg></g></svg></g></svg></g></svg></g><g></g></svg></g><defs></defs></svg><rect width="395.52" height="81.21078834505525" fill="none" stroke="none" visibility="hidden"></rect></g></svg></g></svg>